<?xml version="1.0"?>
<svg xmlns="http://www.w3.org/2000/svg" version="1.1" width="750.7256469726562pt" height="322.5890197753906pt" viewBox="-452.956216796752 -261.2942762374878 750.7256278684064 322.58903217315674" preserveAspectRatio="none" xmlns:xlink="http://www.w3.org/1999/xlink">
  <defs>
  </defs>
  <path d="M-47.18634033203125,-28.74699592590332 L25.136154174804688,-101.06949615478516 " stroke="#6E6E6E" fill="none" stroke-width="1" stroke-opacity="1" />
  <path d="M29.166662216186523,-105.0999984741211 L26.705930709838867,-99.49971008300781 L23.566377639770508,-102.63926696777344 L29.166662216186523,-105.0999984741211 " stroke="none" fill="#6E6E6E" fill-rule="evenodd" stroke-width="0" fill-opacity="1" />
  <path d="M29.166662216186523,-105.0999984741211 L26.705930709838867,-99.49971008300781 L23.566377639770508,-102.63926696777344 L29.166662216186523,-105.0999984741211 " stroke="#6E6E6E" fill="none" stroke-width="1" stroke-opacity="1" />
  <path d="M90.06666564941406,-128.8000030517578 L129.96665954589844,-128.8000030517578 " stroke="#6E6E6E" fill="none" stroke-width="1" stroke-opacity="1" />
  <path d="M135.66665649414062,-128.80001831054688 L129.96664428710938,-126.58000946044922 L129.96664428710938,-131.02000427246094 L135.66665649414062,-128.80001831054688 " stroke="none" fill="#6E6E6E" fill-rule="evenodd" stroke-width="0" fill-opacity="1" />
  <path d="M135.66665649414062,-128.80001831054688 L129.96664428710938,-126.58000946044922 L129.96664428710938,-131.02000427246094 L135.66665649414062,-128.80001831054688 " stroke="#6E6E6E" fill="none" stroke-width="1" stroke-opacity="1" />
  <path d="M72.4881591796875,-105.0999984741211 L134.77891540527344,-29.86152458190918 " stroke="#6E6E6E" fill="none" stroke-width="1" stroke-opacity="1" />
  <path d="M138.41390991210938,-25.470979690551758 L133.0689239501953,-28.445796966552734 L136.48892211914062,-31.27725601196289 L138.41390991210938,-25.470979690551758 " stroke="none" fill="#6E6E6E" fill-rule="evenodd" stroke-width="0" fill-opacity="1" />
  <path d="M138.41390991210938,-25.470979690551758 L133.0689239501953,-28.445796966552734 L136.48892211914062,-31.27725601196289 L138.41390991210938,-25.470979690551758 " stroke="#6E6E6E" fill="none" stroke-width="1" stroke-opacity="1" />
  <path d="M-192.6903839111328,-155.58888244628906 L-152.33251953125,-177.1194305419922 " stroke="#6E6E6E" fill="none" stroke-width="1" stroke-opacity="1" />
  <path d="M-147.30343627929688,-179.80239868164062 L-151.28756713867188,-175.16073608398438 L-153.37745666503906,-179.078125 L-147.30343627929688,-179.80239868164062 " stroke="none" fill="#6E6E6E" fill-rule="evenodd" stroke-width="0" fill-opacity="1" />
  <path d="M-147.30343627929688,-179.80239868164062 L-151.28756713867188,-175.16073608398438 L-153.37745666503906,-179.078125 L-147.30343627929688,-179.80239868164062 " stroke="#6E6E6E" fill="none" stroke-width="1" stroke-opacity="1" />
  <path d="M-194.2832794189453,-125.58146667480469 L-147.1967010498047,-94.95604705810547 " stroke="#6E6E6E" fill="none" stroke-width="1" stroke-opacity="1" />
  <path d="M-142.41845703125,-91.8482437133789 L-148.4071044921875,-93.09504699707031 L-145.9862823486328,-96.81704711914062 L-142.41845703125,-91.8482437133789 " stroke="none" fill="#6E6E6E" fill-rule="evenodd" stroke-width="0" fill-opacity="1" />
  <path d="M-142.41845703125,-91.8482437133789 L-148.4071044921875,-93.09504699707031 L-145.9862823486328,-96.81704711914062 L-142.41845703125,-91.8482437133789 " stroke="#6E6E6E" fill="none" stroke-width="1" stroke-opacity="1" />
  <path d="M-315.7149353027344,-122.67108917236328 L-256.756591796875,-134.1998291015625 " stroke="#6E6E6E" fill="none" stroke-width="1" stroke-opacity="1" />
  <path d="M-251.16250610351562,-135.29368591308594 L-256.3305358886719,-132.02108764648438 L-257.1826171875,-136.37855529785156 L-251.16250610351562,-135.29368591308594 " stroke="none" fill="#6E6E6E" fill-rule="evenodd" stroke-width="0" fill-opacity="1" />
  <path d="M-251.16250610351562,-135.29368591308594 L-256.3305358886719,-132.02108764648438 L-257.1826171875,-136.37855529785156 L-251.16250610351562,-135.29368591308594 " stroke="#6E6E6E" fill="none" stroke-width="1" stroke-opacity="1" />
  <path d="M-87.10782623291016,-182.701904296875 L10.347432136535645,-145.17347717285156 " stroke="#6E6E6E" fill="none" stroke-width="1" stroke-opacity="1" />
  <path d="M15.666666984558105,-143.1251220703125 L9.549654006958008,-143.10177612304688 L11.145211219787598,-147.24517822265625 L15.666666984558105,-143.1251220703125 " stroke="none" fill="#6E6E6E" fill-rule="evenodd" stroke-width="0" fill-opacity="1" />
  <path d="M15.666666984558105,-143.1251220703125 L9.549654006958008,-143.10177612304688 L11.145211219787598,-147.24517822265625 L15.666666984558105,-143.1251220703125 " stroke="#6E6E6E" fill="none" stroke-width="1" stroke-opacity="1" />
  <path d="M24.55814552307129,-207.91867065429688 L42.466609954833984,-157.86680603027344 " stroke="#6E6E6E" fill="none" stroke-width="1" stroke-opacity="1" />
  <path d="M44.386844635009766,-152.5 L40.37637710571289,-157.1189422607422 L44.55684280395508,-158.6147003173828 L44.386844635009766,-152.5 " stroke="none" fill="#6E6E6E" fill-rule="evenodd" stroke-width="0" fill-opacity="1" />
  <path d="M44.386844635009766,-152.5 L40.37637710571289,-157.1189422607422 L44.55684280395508,-158.6147003173828 L44.386844635009766,-152.5 " stroke="#6E6E6E" fill="none" stroke-width="1" stroke-opacity="1" />
  <path d="M-24.380699157714844,-126.90046691894531 L9.968389511108398,-127.74512481689453 " stroke="#6E6E6E" fill="none" stroke-width="1" stroke-opacity="1" />
  <path d="M15.666666030883789,-127.88524627685547 L10.02296257019043,-125.52579498291016 L9.913814544677734,-129.96446228027344 L15.666666030883789,-127.88524627685547 " stroke="none" fill="#6E6E6E" fill-rule="evenodd" stroke-width="0" fill-opacity="1" />
  <path d="M15.666666030883789,-127.88524627685547 L10.02296257019043,-125.52579498291016 L9.913814544677734,-129.96446228027344 L15.666666030883789,-127.88524627685547 " stroke="#6E6E6E" fill="none" stroke-width="1" stroke-opacity="1" />
  <path d="M24.170602798461914,-152.5 L81.5627212524414,-152.5 L81.56270599365234,-152.5 C86.25929260253906,-152.50001525878906 90.066650390625,-148.6926727294922 90.066650390625,-143.99607849121094 C90.066650390625,-143.99607849121094 90.066650390625,-143.99606323242188 90.066650390625,-143.99606323242188 L90.06665802001953,-143.99606323242188 L90.06665802001953,-113.60393524169922 L90.066650390625,-113.60394287109375 C90.066650390625,-108.9073486328125 86.25931549072266,-105.10000610351562 81.5627212524414,-105.10000610351562 L81.5627212524414,-105.10000610351562 L24.170602798461914,-105.10000610351562 L24.170608520507812,-105.10000610351562 C19.47401237487793,-105.10000610351562 15.666669845581055,-108.90734100341797 15.666666984558105,-113.60393524169922 L15.666666984558105,-143.99606323242188 L15.666666030883789,-143.99606323242188 C15.666662216186523,-148.69265747070312 19.474000930786133,-152.5 24.17059326171875,-152.50001525878906 " stroke="none" fill="#F2E279" fill-rule="evenodd" stroke-width="0" fill-opacity="1" />
  <text x="21.63585662841797" y="35.284881591796875" dx="0" dy="0" font-family="Segoe UI" font-size="8.249999754130847pt" fill="#000000" style="text-anchor:start" transform="matrix(0.750000 0.000000 0.000000 0.750000 15.666666984558105 -152.5)">Modèle_1</text>
  <path d="M24.170602798461914,-152.5 L81.5627212524414,-152.5 L81.56270599365234,-152.5 C86.25929260253906,-152.50001525878906 90.066650390625,-148.6926727294922 90.066650390625,-143.99607849121094 C90.066650390625,-143.99607849121094 90.066650390625,-143.99606323242188 90.066650390625,-143.99606323242188 L90.06665802001953,-143.99606323242188 L90.06665802001953,-113.60393524169922 L90.066650390625,-113.60394287109375 C90.066650390625,-108.9073486328125 86.25931549072266,-105.10000610351562 81.5627212524414,-105.10000610351562 L81.5627212524414,-105.10000610351562 L24.170602798461914,-105.10000610351562 L24.170608520507812,-105.10000610351562 C19.47401237487793,-105.10000610351562 15.666669845581055,-108.90734100341797 15.666666984558105,-113.60393524169922 L15.666666984558105,-143.99606323242188 L15.666666030883789,-143.99606323242188 C15.666662216186523,-148.69265747070312 19.474000930786133,-152.5 24.17059326171875,-152.50001525878906 " stroke="none" fill="none" stroke-width="0.75" stroke-opacity="0" />
  <path d="M-29.933349609375,-8.800006866455078 C-29.933349609375,4.2891387939453125 -46.588356018066406,14.899993896484375 -67.1333236694336,14.89999771118164 C-87.67831420898438,14.900001525878906 -104.33332824707031,4.289157867431641 -104.33334350585938,-8.799985885620117 L-104.33334350585938,-8.799982070922852 C-104.33335876464844,-21.889131546020508 -87.6783676147461,-32.49999237060547 -67.13337707519531,-32.5 C-46.588382720947266,-32.5000114440918 -29.933372497558594,-21.88916778564453 -29.933349609375,-8.80000114440918 C-29.933349609375,-8.80000114440918 -29.933349609375,-8.80000114440918 -29.933349609375,-8.80000114440918 " stroke="none" fill="#70AECC" fill-rule="evenodd" stroke-width="0" fill-opacity="1" />
  <text x="17.552522659301758" y="35.284881591796875" dx="0" dy="0" font-family="Segoe UI" font-size="8.249999754130847pt" fill="#000000" style="text-anchor:start" transform="matrix(0.750000 0.000000 0.000000 0.750000 -104.33333587646484 -32.5)">Vegtype.shp</text>
  <path d="M-29.933349609375,-8.800006866455078 C-29.933349609375,4.2891387939453125 -46.588356018066406,14.899993896484375 -67.1333236694336,14.89999771118164 C-87.67831420898438,14.900001525878906 -104.33332824707031,4.289157867431641 -104.33334350585938,-8.799985885620117 L-104.33334350585938,-8.799982070922852 C-104.33335876464844,-21.889131546020508 -87.6783676147461,-32.49999237060547 -67.13337707519531,-32.5 C-46.588382720947266,-32.5000114440918 -29.933372497558594,-21.88916778564453 -29.933349609375,-8.80000114440918 C-29.933349609375,-8.80000114440918 -29.933349609375,-8.80000114440918 -29.933349609375,-8.80000114440918 " stroke="none" fill="none" stroke-width="0.75" stroke-opacity="0" />
  <path d="M210.06663513183594,-128.80001831054688 C210.06663513183594,-115.71086120605469 193.41163635253906,-105.10000610351562 172.86666870117188,-105.10000610351562 C152.32167053222656,-105.0999984741211 135.66665649414062,-115.71084594726562 135.66664123535156,-128.79998779296875 L135.66664123535156,-128.79998779296875 C135.6666259765625,-141.88914489746094 152.32162475585938,-152.5 172.86660766601562,-152.5 C193.41160583496094,-152.50001525878906 210.06661987304688,-141.88917541503906 210.06663513183594,-128.8000030517578 C210.06663513183594,-128.8000030517578 210.06663513183594,-128.8000030517578 210.06663513183594,-128.8000030517578 " stroke="none" fill="#83CC7C" fill-rule="evenodd" stroke-width="0" fill-opacity="1" />
  <text x="20.985857009887695" y="20.654884338378906" dx="0" dy="0" font-family="Segoe UI" font-size="8.249999754130847pt" fill="#000000" style="text-anchor:start" transform="matrix(0.750000 0.000000 0.000000 0.750000 135.66665649414062 -152.5)">Végétation </text>
  <text x="3.535355567932129" y="35.284881591796875" dx="0" dy="0" font-family="Segoe UI" font-size="8.249999754130847pt" fill="#000000" style="text-anchor:start" transform="matrix(0.750000 0.000000 0.000000 0.750000 135.66665649414062 -152.5)">découpé selon les </text>
  <text x="2.105022430419922" y="49.91488265991211" dx="0" dy="0" font-family="Segoe UI" font-size="8.249999754130847pt" fill="#000000" style="text-anchor:start" transform="matrix(0.750000 0.000000 0.000000 0.750000 135.66665649414062 -152.5)">emprises de tous </text>
  <text x="83.53985595703125" y="49.91488265991211" dx="0" dy="0" font-family="Segoe UI" font-size="8.249999754130847pt" fill="#000000" style="text-anchor:start" transform="matrix(0.750000 0.000000 0.000000 0.750000 135.66665649414062 -152.5)"> ...</text>
  <path d="M210.06663513183594,-128.80001831054688 C210.06663513183594,-115.71086120605469 193.41163635253906,-105.10000610351562 172.86666870117188,-105.10000610351562 C152.32167053222656,-105.0999984741211 135.66665649414062,-115.71084594726562 135.66664123535156,-128.79998779296875 L135.66664123535156,-128.79998779296875 C135.6666259765625,-141.88914489746094 152.32162475585938,-152.5 172.86660766601562,-152.5 C193.41160583496094,-152.50001525878906 210.06661987304688,-141.88917541503906 210.06663513183594,-128.8000030517578 C210.06663513183594,-128.8000030517578 210.06663513183594,-128.8000030517578 210.06663513183594,-128.8000030517578 " stroke="none" fill="none" stroke-width="0.75" stroke-opacity="0" />
  <path d="M225.7932586669922,11.56271743774414 C225.7932586669922,35.89788818359375 200.3994140625,55.62544250488281 169.07455444335938,55.625450134277344 C137.74966430664062,55.625457763671875 112.35580444335938,35.897926330566406 112.35577392578125,11.562759399414062 L112.35577392578125,11.562763214111328 C112.35575103759766,-12.772411346435547 137.74957275390625,-32.4999885559082 169.07447814941406,-32.5 C200.3993682861328,-32.50001525878906 225.79324340820312,-12.77247428894043 225.7932586669922,11.562728881835938 C225.7932586669922,11.562728881835938 225.7932586669922,11.562728881835938 225.7932586669922,11.562728881835938 " stroke="none" fill="#83CC7C" fill-rule="evenodd" stroke-width="0" fill-opacity="1" />
  <text x="19.01702308654785" y="25.860191345214844" dx="0" dy="0" font-family="Segoe UI" font-size="8.249999754130847pt" fill="#000000" style="text-anchor:start" transform="matrix(0.750000 0.000000 0.000000 0.750000 112.35578155517578 -32.5)">Statistique par type de </text>
  <text x="15.700355529785156" y="40.49019241333008" dx="0" dy="0" font-family="Segoe UI" font-size="8.249999754130847pt" fill="#000000" style="text-anchor:start" transform="matrix(0.750000 0.000000 0.000000 0.750000 112.35578155517578 -32.5)">végétation dans chaque </text>
  <text x="21.43718910217285" y="55.12019348144531" dx="0" dy="0" font-family="Segoe UI" font-size="8.249999754130847pt" fill="#000000" style="text-anchor:start" transform="matrix(0.750000 0.000000 0.000000 0.750000 112.35578155517578 -32.5)">couche de végétation </text>
  <text x="6.418689250946045" y="69.75019073486328" dx="0" dy="0" font-family="Segoe UI" font-size="8.249999754130847pt" fill="#000000" style="text-anchor:start" transform="matrix(0.750000 0.000000 0.000000 0.750000 112.35578155517578 -32.5)">découpé selon les emprises </text>
  <text x="5.655355930328369" y="84.38018798828125" dx="0" dy="0" font-family="Segoe UI" font-size="8.249999754130847pt" fill="#000000" style="text-anchor:start" transform="matrix(0.750000 0.000000 0.000000 0.750000 112.35578155517578 -32.5)">de tous les buffer autour de </text>
  <text x="41.6171875" y="99.01019287109375" dx="0" dy="0" font-family="Segoe UI" font-size="8.249999754130847pt" fill="#000000" style="text-anchor:start" transform="matrix(0.750000 0.000000 0.000000 0.750000 112.35578155517578 -32.5)">chaque route</text>
  <path d="M225.7932586669922,11.56271743774414 C225.7932586669922,35.89788818359375 200.3994140625,55.62544250488281 169.07455444335938,55.625450134277344 C137.74966430664062,55.625457763671875 112.35580444335938,35.897926330566406 112.35577392578125,11.562759399414062 L112.35577392578125,11.562763214111328 C112.35575103759766,-12.772411346435547 137.74957275390625,-32.4999885559082 169.07447814941406,-32.5 C200.3993682861328,-32.50001525878906 225.79324340820312,-12.77247428894043 225.7932586669922,11.562728881835938 C225.7932586669922,11.562728881835938 225.7932586669922,11.562728881835938 225.7932586669922,11.562728881835938 " stroke="none" fill="none" stroke-width="0.75" stroke-opacity="0" />
  <path d="M-256.11175537109375,-141.59999084472656 L-237.5117645263672,-117.89999389648438 L-200.311767578125,-117.89999389648438 L-181.71176147460938,-141.59999084472656 L-200.311767578125,-165.29998779296875 L-237.5117645263672,-165.29998779296875 L-256.11175537109375,-141.59999084472656 " stroke="none" fill="#F0B871" fill-rule="evenodd" stroke-width="0" fill-opacity="1" />
  <text x="12.99852180480957" y="27.96988296508789" dx="0" dy="0" font-family="Segoe UI" font-size="8.249999754130847pt" fill="#000000" style="text-anchor:start" transform="matrix(0.750000 0.000000 0.000000 0.750000 -256.11175537109375 -165.29998779296875)">Itérer dans des </text>
  <text x="8.953855514526367" y="42.599884033203125" dx="0" dy="0" font-family="Segoe UI" font-size="8.249999754130847pt" fill="#000000" style="text-anchor:start" transform="matrix(0.750000 0.000000 0.000000 0.750000 -256.11175537109375 -165.29998779296875)">classes d'entités</text>
  <path d="M-256.11175537109375,-141.59999084472656 L-237.5117645263672,-117.89999389648438 L-200.311767578125,-117.89999389648438 L-181.71176147460938,-141.59999084472656 L-200.311767578125,-165.29998779296875 L-237.5117645263672,-165.29998779296875 L-256.11175537109375,-141.59999084472656 " stroke="none" fill="none" stroke-width="0.75" stroke-opacity="0" />
  <path d="M-81.7117691040039,-194.9490966796875 C-81.7117691040039,-181.8599395751953 -98.36677551269531,-171.24908447265625 -118.9117431640625,-171.24908447265625 C-139.4567413330078,-171.24908447265625 -156.11175537109375,-181.85992431640625 -156.1117706298828,-194.94906616210938 L-156.1117706298828,-194.94906616210938 C-156.11178588867188,-208.03822326660156 -139.456787109375,-218.64907836914062 -118.91179656982422,-218.64907836914062 C-98.36680603027344,-218.6490936279297 -81.7117919921875,-208.0382537841797 -81.7117691040039,-194.94908142089844 C-81.7117691040039,-194.94908142089844 -81.7117691040039,-194.94908142089844 -81.7117691040039,-194.94908142089844 " stroke="none" fill="#83CC7C" fill-rule="evenodd" stroke-width="0" fill-opacity="1" />
  <text x="6.481522560119629" y="35.284881591796875" dx="0" dy="0" font-family="Segoe UI" font-size="8.249999754130847pt" fill="#000000" style="text-anchor:start" transform="matrix(0.750000 0.000000 0.000000 0.750000 -156.11175537109375 -218.64907836914062)">PlanA_Roads.shp</text>
  <path d="M-81.7117691040039,-194.9490966796875 C-81.7117691040039,-181.8599395751953 -98.36677551269531,-171.24908447265625 -118.9117431640625,-171.24908447265625 C-139.4567413330078,-171.24908447265625 -156.11175537109375,-181.85992431640625 -156.1117706298828,-194.94906616210938 L-156.1117706298828,-194.94906616210938 C-156.11178588867188,-208.03822326660156 -139.456787109375,-218.64907836914062 -118.91179656982422,-218.64907836914062 C-98.36680603027344,-218.6490936279297 -81.7117919921875,-208.0382537841797 -81.7117691040039,-194.94908142089844 C-81.7117691040039,-194.94908142089844 -81.7117691040039,-194.94908142089844 -81.7117691040039,-194.94908142089844 " stroke="none" fill="none" stroke-width="0.75" stroke-opacity="0" />
  <path d="M-79.21178436279297,-74.93334197998047 C-79.21178436279297,-61.84419250488281 -95.86679077148438,-51.23333740234375 -116.41175842285156,-51.233333587646484 C-136.95675659179688,-51.23332977294922 -153.6117706298828,-61.844173431396484 -153.61178588867188,-74.93331909179688 L-153.61178588867188,-74.93331909179688 C-153.61180114746094,-88.02246856689453 -136.95680236816406,-98.6333236694336 -116.41181182861328,-98.63333129882812 C-95.8668212890625,-98.63334655761719 -79.21180725097656,-88.02249908447266 -79.21178436279297,-74.93333435058594 C-79.21178436279297,-74.93333435058594 -79.21178436279297,-74.93333435058594 -79.21178436279297,-74.93333435058594 " stroke="none" fill="#82CAED" fill-rule="evenodd" stroke-width="0" fill-opacity="1" />
  <text x="34.120853424072266" y="35.284881591796875" dx="0" dy="0" font-family="Segoe UI" font-size="8.249999754130847pt" fill="#000000" style="text-anchor:start" transform="matrix(0.750000 0.000000 0.000000 0.750000 -153.6117706298828 -98.63333129882812)">Nom</text>
  <path d="M-79.21178436279297,-74.93334197998047 C-79.21178436279297,-61.84419250488281 -95.86679077148438,-51.23333740234375 -116.41175842285156,-51.233333587646484 C-136.95675659179688,-51.23332977294922 -153.6117706298828,-61.844173431396484 -153.61178588867188,-74.93331909179688 L-153.61178588867188,-74.93331909179688 C-153.61180114746094,-88.02246856689453 -136.95680236816406,-98.6333236694336 -116.41181182861328,-98.63333129882812 C-95.8668212890625,-98.63334655761719 -79.21180725097656,-88.02249908447266 -79.21178436279297,-74.93333435058594 C-79.21178436279297,-74.93333435058594 -79.21178436279297,-74.93333435058594 -79.21178436279297,-74.93333435058594 " stroke="none" fill="none" stroke-width="0.75" stroke-opacity="0" />
  <path d="M-314.08013916015625,-115.71666717529297 C-314.08013916015625,-102.62751770019531 -330.7351379394531,-92.01666259765625 -351.28009033203125,-92.01666259765625 C-371.8251037597656,-92.01665496826172 -388.4801025390625,-102.62750244140625 -388.4801330566406,-115.71664428710938 L-388.4801330566406,-115.71664428710938 C-388.4801330566406,-128.80580139160156 -371.82513427734375,-139.41665649414062 -351.2801513671875,-139.41665649414062 C-330.73516845703125,-139.4166717529297 -314.08013916015625,-128.8058319091797 -314.08013916015625,-115.71665954589844 C-314.08013916015625,-115.71665954589844 -314.08013916015625,-115.71665954589844 -314.08013916015625,-115.71665954589844 " stroke="none" fill="#70AECC" fill-rule="evenodd" stroke-width="0" fill-opacity="1" />
  <text x="11.707355499267578" y="35.284881591796875" dx="0" dy="0" font-family="Segoe UI" font-size="8.249999754130847pt" fill="#000000" style="text-anchor:start" transform="matrix(0.750000 0.000000 0.000000 0.750000 -388.4801025390625 -139.41665649414062)">A_ITERATEURS</text>
  <path d="M-314.08013916015625,-115.71666717529297 C-314.08013916015625,-102.62751770019531 -330.7351379394531,-92.01666259765625 -351.28009033203125,-92.01666259765625 C-371.8251037597656,-92.01665496826172 -388.4801025390625,-102.62750244140625 -388.4801330566406,-115.71664428710938 L-388.4801330566406,-115.71664428710938 C-388.4801330566406,-128.80580139160156 -371.82513427734375,-139.41665649414062 -351.2801513671875,-139.41665649414062 C-330.73516845703125,-139.4166717529297 -314.08013916015625,-128.8058319091797 -314.08013916015625,-115.71665954589844 C-314.08013916015625,-115.71665954589844 -314.08013916015625,-115.71665954589844 -314.08013916015625,-115.71665954589844 " stroke="none" fill="none" stroke-width="0.75" stroke-opacity="0" />
  <path d="M53.504154205322266,-230.9875030517578 C53.504154205322266,-217.89834594726562 36.84914779663086,-207.28749084472656 16.304180145263672,-207.28749084472656 C-4.240804672241211,-207.28749084472656 -20.89581871032715,-217.89833068847656 -20.895835876464844,-230.9874725341797 L-20.895837783813477,-230.9874725341797 C-20.895854949951172,-244.07662963867188 -4.24085807800293,-254.68748474121094 16.30413055419922,-254.68748474121094 C36.84912109375,-254.6875 53.50413131713867,-244.07666015625 53.504154205322266,-230.98748779296875 C53.504154205322266,-230.98748779296875 53.504154205322266,-230.98748779296875 53.504154205322266,-230.98748779296875 " stroke="none" fill="#52C0CC" fill-rule="evenodd" stroke-width="0" fill-opacity="1" />
  <text x="19.66368865966797" y="27.96988296508789" dx="0" dy="0" font-family="Segoe UI" font-size="8.249999754130847pt" fill="#000000" style="text-anchor:start" transform="matrix(0.750000 0.000000 0.000000 0.750000 -20.895832061767578 -254.68748474121094)">Champs de </text>
  <text x="20.696189880371094" y="42.599884033203125" dx="0" dy="0" font-family="Segoe UI" font-size="8.249999754130847pt" fill="#000000" style="text-anchor:start" transform="matrix(0.750000 0.000000 0.000000 0.750000 -20.895832061767578 -254.68748474121094)">statistiques</text>
  <path d="M53.504154205322266,-230.9875030517578 C53.504154205322266,-217.89834594726562 36.84914779663086,-207.28749084472656 16.304180145263672,-207.28749084472656 C-4.240804672241211,-207.28749084472656 -20.89581871032715,-217.89833068847656 -20.895835876464844,-230.9874725341797 L-20.895837783813477,-230.9874725341797 C-20.895854949951172,-244.07662963867188 -4.24085807800293,-254.68748474121094 16.30413055419922,-254.68748474121094 C36.84912109375,-254.6875 53.50413131713867,-244.07666015625 53.504154205322266,-230.98748779296875 C53.504154205322266,-230.98748779296875 53.504154205322266,-230.98748779296875 53.504154205322266,-230.98748779296875 " stroke="none" fill="none" stroke-width="0.75" stroke-opacity="0" />
  <path d="M-24.308349609375,-125.98751068115234 C-24.308349609375,-112.89836120605469 -40.963356018066406,-102.28750610351562 -61.508323669433594,-102.28750610351562 C-82.05331420898438,-102.2874984741211 -98.70832824707031,-112.89834594726562 -98.70834350585938,-125.98748779296875 L-98.70834350585938,-125.98748779296875 C-98.70835876464844,-139.07664489746094 -82.0533676147461,-149.6875 -61.50837326049805,-149.6875 C-40.963382720947266,-149.68751525878906 -24.308372497558594,-139.07667541503906 -24.308349609375,-125.98750305175781 C-24.308349609375,-125.98750305175781 -24.308349609375,-125.98750305175781 -24.308349609375,-125.98750305175781 " stroke="none" fill="#52C0CC" fill-rule="evenodd" stroke-width="0" fill-opacity="1" />
  <text x="21.99702262878418" y="27.96988296508789" dx="0" dy="0" font-family="Segoe UI" font-size="8.249999754130847pt" fill="#000000" style="text-anchor:start" transform="matrix(0.750000 0.000000 0.000000 0.750000 -98.70833587646484 -149.6875)">Champ de </text>
  <text x="15.064188957214355" y="42.599884033203125" dx="0" dy="0" font-family="Segoe UI" font-size="8.249999754130847pt" fill="#000000" style="text-anchor:start" transform="matrix(0.750000 0.000000 0.000000 0.750000 -98.70833587646484 -149.6875)">récapitulation</text>
  <path d="M-24.308349609375,-125.98751068115234 C-24.308349609375,-112.89836120605469 -40.963356018066406,-102.28750610351562 -61.508323669433594,-102.28750610351562 C-82.05331420898438,-102.2874984741211 -98.70832824707031,-112.89834594726562 -98.70834350585938,-125.98748779296875 L-98.70834350585938,-125.98748779296875 C-98.70835876464844,-139.07664489746094 -82.0533676147461,-149.6875 -61.50837326049805,-149.6875 C-40.963382720947266,-149.68751525878906 -24.308372497558594,-139.07667541503906 -24.308349609375,-125.98750305175781 C-24.308349609375,-125.98750305175781 -24.308349609375,-125.98750305175781 -24.308349609375,-125.98750305175781 " stroke="none" fill="none" stroke-width="0.75" stroke-opacity="0" />
  <path d="M-306.5801086425781,-132.8541717529297 C-306.5801086425781,-128.7120361328125 -309.9379577636719,-125.35416412353516 -314.080078125,-125.35416412353516 C-318.22222900390625,-125.35415649414062 -321.580078125,-128.71202087402344 -321.580078125,-132.85415649414062 L-321.5801086425781,-132.85415649414062 C-321.5801086425781,-136.9962921142578 -318.22222900390625,-140.35415649414062 -314.0801086425781,-140.35415649414062 C-309.9379577636719,-140.3541717529297 -306.5801086425781,-136.99630737304688 -306.5801086425781,-132.8541717529297 C-306.5801086425781,-132.8541717529297 -306.5801086425781,-132.85415649414062 -306.5801086425781,-132.85415649414062 " stroke="none" fill="none" fill-rule="evenodd" stroke-width="0" fill-opacity="0" />
  <text x="2.7061891555786133" y="15.29671859741211" dx="0" dy="0" font-family="Arial" font-size="8.999999731779106pt" fill="#555555" style="text-anchor:start" font-weight="bold" transform="matrix(0.750000 0.000000 0.000000 0.750000 -321.580078125 -140.35415649414062)">P</text>
  <path d="M-306.5801086425781,-132.8541717529297 C-306.5801086425781,-128.7120361328125 -309.9379577636719,-125.35416412353516 -314.080078125,-125.35416412353516 C-318.22222900390625,-125.35415649414062 -321.580078125,-128.71202087402344 -321.580078125,-132.85415649414062 L-321.5801086425781,-132.85415649414062 C-321.5801086425781,-136.9962921142578 -318.22222900390625,-140.35415649414062 -314.0801086425781,-140.35415649414062 C-309.9379577636719,-140.3541717529297 -306.5801086425781,-136.99630737304688 -306.5801086425781,-132.8541717529297 C-306.5801086425781,-132.8541717529297 -306.5801086425781,-132.85415649414062 -306.5801086425781,-132.85415649414062 " stroke="none" fill="none" stroke-width="0.75" stroke-opacity="0" />
  <path d="M-22.433340072631836,-25.937501907348633 C-22.433340072631836,-21.795368194580078 -25.79120445251465,-18.437501907348633 -29.93333625793457,-18.437501907348633 C-34.075469970703125,-18.4375 -37.4333381652832,-21.795360565185547 -37.4333381652832,-25.937496185302734 L-37.43334197998047,-25.9374942779541 C-37.433345794677734,-30.07962989807129 -34.07548141479492,-33.4375 -29.933351516723633,-33.4375 C-25.791215896606445,-33.43750762939453 -22.433347702026367,-30.079648971557617 -22.433340072631836,-25.937501907348633 C-22.433340072631836,-25.937501907348633 -22.433340072631836,-25.9375 -22.433340072631836,-25.9375 " stroke="none" fill="none" fill-rule="evenodd" stroke-width="0" fill-opacity="0" />
  <text x="2.7061891555786133" y="15.29671859741211" dx="0" dy="0" font-family="Arial" font-size="8.999999731779106pt" fill="#555555" style="text-anchor:start" font-weight="bold" transform="matrix(0.750000 0.000000 0.000000 0.750000 -37.4333381652832 -33.4375)">P</text>
  <path d="M-22.433340072631836,-25.937501907348633 C-22.433340072631836,-21.795368194580078 -25.79120445251465,-18.437501907348633 -29.93333625793457,-18.437501907348633 C-34.075469970703125,-18.4375 -37.4333381652832,-21.795360565185547 -37.4333381652832,-25.937496185302734 L-37.43334197998047,-25.9374942779541 C-37.433345794677734,-30.07962989807129 -34.07548141479492,-33.4375 -29.933351516723633,-33.4375 C-25.791215896606445,-33.43750762939453 -22.433347702026367,-30.079648971557617 -22.433340072631836,-25.937501907348633 C-22.433340072631836,-25.937501907348633 -22.433340072631836,-25.9375 -22.433340072631836,-25.9375 " stroke="none" fill="none" stroke-width="0.75" stroke-opacity="0" />
  <path d="M233.2932586669922,-25.937501907348633 C233.2932586669922,-21.795368194580078 229.93539428710938,-18.437501907348633 225.79327392578125,-18.437501907348633 C221.65113830566406,-18.4375 218.29327392578125,-21.795360565185547 218.29327392578125,-25.937496185302734 L218.2932586669922,-25.9374942779541 C218.2932586669922,-30.07962989807129 221.651123046875,-33.4375 225.7932586669922,-33.4375 C229.93539428710938,-33.43750762939453 233.2932586669922,-30.079648971557617 233.2932586669922,-25.937501907348633 C233.2932586669922,-25.937501907348633 233.2932586669922,-25.9375 233.2932586669922,-25.9375 " stroke="none" fill="none" fill-rule="evenodd" stroke-width="0" fill-opacity="0" />
  <text x="2.7061891555786133" y="15.29671859741211" dx="0" dy="0" font-family="Arial" font-size="8.999999731779106pt" fill="#555555" style="text-anchor:start" font-weight="bold" transform="matrix(0.750000 0.000000 0.000000 0.750000 218.29327392578125 -33.4375)">P</text>
  <path d="M233.2932586669922,-25.937501907348633 C233.2932586669922,-21.795368194580078 229.93539428710938,-18.437501907348633 225.79327392578125,-18.437501907348633 C221.65113830566406,-18.4375 218.29327392578125,-21.795360565185547 218.29327392578125,-25.937496185302734 L218.2932586669922,-25.9374942779541 C218.2932586669922,-30.07962989807129 221.651123046875,-33.4375 225.7932586669922,-33.4375 C229.93539428710938,-33.43750762939453 233.2932586669922,-30.079648971557617 233.2932586669922,-25.937501907348633 C233.2932586669922,-25.937501907348633 233.2932586669922,-25.9375 233.2932586669922,-25.9375 " stroke="none" fill="none" stroke-width="0.75" stroke-opacity="0" />
  <path d="M217.56663513183594,-145.93751525878906 C217.56663513183594,-141.79537963867188 214.20877075195312,-138.43751525878906 210.066650390625,-138.43751525878906 C205.9245147705078,-138.4375 202.566650390625,-141.7953643798828 202.566650390625,-145.9375 L202.56663513183594,-145.9375 C202.56663513183594,-150.0796356201172 205.92449951171875,-153.4375 210.06663513183594,-153.4375 C214.20877075195312,-153.43751525878906 217.56663513183594,-150.07965087890625 217.56663513183594,-145.93751525878906 C217.56663513183594,-145.93751525878906 217.56663513183594,-145.9375 217.56663513183594,-145.9375 " stroke="none" fill="none" fill-rule="evenodd" stroke-width="0" fill-opacity="0" />
  <text x="2.7061891555786133" y="15.29671859741211" dx="0" dy="0" font-family="Arial" font-size="8.999999731779106pt" fill="#555555" style="text-anchor:start" font-weight="bold" transform="matrix(0.750000 0.000000 0.000000 0.750000 202.566650390625 -153.4375)">P</text>
  <path d="M217.56663513183594,-145.93751525878906 C217.56663513183594,-141.79537963867188 214.20877075195312,-138.43751525878906 210.066650390625,-138.43751525878906 C205.9245147705078,-138.4375 202.566650390625,-141.7953643798828 202.566650390625,-145.9375 L202.56663513183594,-145.9375 C202.56663513183594,-150.0796356201172 205.92449951171875,-153.4375 210.06663513183594,-153.4375 C214.20877075195312,-153.43751525878906 217.56663513183594,-150.07965087890625 217.56663513183594,-145.93751525878906 C217.56663513183594,-145.93751525878906 217.56663513183594,-145.9375 217.56663513183594,-145.9375 " stroke="none" fill="none" stroke-width="0.75" stroke-opacity="0" />
  <path d="M61.0041618347168,-248.125 C61.0041618347168,-243.9828643798828 57.646297454833984,-240.625 53.50416564941406,-240.625 C49.36203384399414,-240.62498474121094 46.00416564941406,-243.98284912109375 46.00416564941406,-248.12498474121094 L46.0041618347168,-248.12498474121094 C46.00415802001953,-252.26712036132812 49.362022399902344,-255.62498474121094 53.504150390625,-255.62498474121094 C57.64628601074219,-255.625 61.004154205322266,-252.2671356201172 61.0041618347168,-248.125 C61.0041618347168,-248.125 61.0041618347168,-248.12498474121094 61.0041618347168,-248.12498474121094 " stroke="none" fill="none" fill-rule="evenodd" stroke-width="0" fill-opacity="0" />
  <text x="2.7061891555786133" y="15.29671859741211" dx="0" dy="0" font-family="Arial" font-size="8.999999731779106pt" fill="#555555" style="text-anchor:start" font-weight="bold" transform="matrix(0.750000 0.000000 0.000000 0.750000 46.00416564941406 -255.62498474121094)">P</text>
  <path d="M61.0041618347168,-248.125 C61.0041618347168,-243.9828643798828 57.646297454833984,-240.625 53.50416564941406,-240.625 C49.36203384399414,-240.62498474121094 46.00416564941406,-243.98284912109375 46.00416564941406,-248.12498474121094 L46.0041618347168,-248.12498474121094 C46.00415802001953,-252.26712036132812 49.362022399902344,-255.62498474121094 53.504150390625,-255.62498474121094 C57.64628601074219,-255.625 61.004154205322266,-252.2671356201172 61.0041618347168,-248.125 C61.0041618347168,-248.125 61.0041618347168,-248.12498474121094 61.0041618347168,-248.12498474121094 " stroke="none" fill="none" stroke-width="0.75" stroke-opacity="0" />
  <path d="M-16.80833625793457,-143.12501525878906 C-16.80833625793457,-138.98287963867188 -20.166200637817383,-135.62501525878906 -24.308332443237305,-135.62501525878906 C-28.45046615600586,-135.625 -31.808332443237305,-138.9828643798828 -31.808334350585938,-143.125 L-31.80833625793457,-143.125 C-31.808340072631836,-147.2671356201172 -28.450477600097656,-150.625 -24.308347702026367,-150.625 C-20.16621208190918,-150.62501525878906 -16.8083438873291,-147.26715087890625 -16.80833625793457,-143.12501525878906 C-16.80833625793457,-143.12501525878906 -16.80833625793457,-143.125 -16.80833625793457,-143.125 " stroke="none" fill="none" fill-rule="evenodd" stroke-width="0" fill-opacity="0" />
  <text x="2.7061891555786133" y="15.29671859741211" dx="0" dy="0" font-family="Arial" font-size="8.999999731779106pt" fill="#555555" style="text-anchor:start" font-weight="bold" transform="matrix(0.750000 0.000000 0.000000 0.750000 -31.808334350585938 -150.625)">P</text>
  <path d="M-16.80833625793457,-143.12501525878906 C-16.80833625793457,-138.98287963867188 -20.166200637817383,-135.62501525878906 -24.308332443237305,-135.62501525878906 C-28.45046615600586,-135.625 -31.808332443237305,-138.9828643798828 -31.808334350585938,-143.125 L-31.80833625793457,-143.125 C-31.808340072631836,-147.2671356201172 -28.450477600097656,-150.625 -24.308347702026367,-150.625 C-20.16621208190918,-150.62501525878906 -16.8083438873291,-147.26715087890625 -16.80833625793457,-143.12501525878906 C-16.80833625793457,-143.12501525878906 -16.80833625793457,-143.125 -16.80833625793457,-143.125 " stroke="none" fill="none" stroke-width="0.75" stroke-opacity="0" />
</svg>